<svg xmlns="http://www.w3.org/2000/svg" xmlns:xlink="http://www.w3.org/1999/xlink" width="500" zoomAndPan="magnify" viewBox="0 0 375 374.999991" height="500" preserveAspectRatio="xMidYMid meet" version="1.0"><defs><clipPath id="18abdc5838"><path d="M 77 104.757812 L 300.820312 104.757812 L 300.820312 368 L 77 368 Z M 77 104.757812 " clip-rule="nonzero"/></clipPath><clipPath id="61295cffc6"><path d="M 67 15 L 288 15 L 288 149 L 67 149 Z M 67 15 " clip-rule="nonzero"/></clipPath><clipPath id="cb9134036c"><path d="M 49.5 37.054688 L 292.140625 -3.472656 L 320.558594 166.667969 L 77.917969 207.199219 Z M 49.5 37.054688 " clip-rule="nonzero"/></clipPath><clipPath id="25c5c13d75"><path d="M 292.183594 -3.480469 L 49.546875 37.046875 L 77.964844 207.191406 L 320.605469 166.660156 Z M 292.183594 -3.480469 " clip-rule="nonzero"/></clipPath><clipPath id="897bb52e1e"><path d="M 101 104 L 273 104 L 273 168 L 101 168 Z M 101 104 " clip-rule="nonzero"/></clipPath><clipPath id="18e2dc204b"><path d="M 49.5 37.054688 L 292.140625 -3.472656 L 320.558594 166.667969 L 77.917969 207.199219 Z M 49.5 37.054688 " clip-rule="nonzero"/></clipPath><clipPath id="1ea4678c48"><path d="M 292.183594 -3.480469 L 49.546875 37.046875 L 77.964844 207.191406 L 320.605469 166.660156 Z M 292.183594 -3.480469 " clip-rule="nonzero"/></clipPath><clipPath id="75c219dfe0"><path d="M 150 140 L 307 140 L 307 184 L 150 184 Z M 150 140 " clip-rule="nonzero"/></clipPath><clipPath id="7a16a70138"><path d="M 49.5 37.054688 L 292.140625 -3.472656 L 320.558594 166.667969 L 77.917969 207.199219 Z M 49.5 37.054688 " clip-rule="nonzero"/></clipPath><clipPath id="df26f3e6b8"><path d="M 292.183594 -3.480469 L 49.546875 37.046875 L 77.964844 207.191406 L 320.605469 166.660156 Z M 292.183594 -3.480469 " clip-rule="nonzero"/></clipPath><clipPath id="07716c8696"><path d="M 213 65 L 259 65 L 259 95 L 213 95 Z M 213 65 " clip-rule="nonzero"/></clipPath><clipPath id="62cdaab79e"><path d="M 49.5 37.054688 L 292.140625 -3.472656 L 320.558594 166.667969 L 77.917969 207.199219 Z M 49.5 37.054688 " clip-rule="nonzero"/></clipPath><clipPath id="6d7084579e"><path d="M 292.183594 -3.480469 L 49.546875 37.046875 L 77.964844 207.191406 L 320.605469 166.660156 Z M 292.183594 -3.480469 " clip-rule="nonzero"/></clipPath><clipPath id="493af99050"><path d="M 231 53 L 242 53 L 242 94 L 231 94 Z M 231 53 " clip-rule="nonzero"/></clipPath><clipPath id="99157d9c44"><path d="M 49.5 37.054688 L 292.140625 -3.472656 L 320.558594 166.667969 L 77.917969 207.199219 Z M 49.5 37.054688 " clip-rule="nonzero"/></clipPath><clipPath id="ed5f61c9a0"><path d="M 292.183594 -3.480469 L 49.546875 37.046875 L 77.964844 207.191406 L 320.605469 166.660156 Z M 292.183594 -3.480469 " clip-rule="nonzero"/></clipPath><clipPath id="452035364a"><path d="M 221 36 L 243 36 L 243 58 L 221 58 Z M 221 36 " clip-rule="nonzero"/></clipPath><clipPath id="1b7a10869b"><path d="M 49.5 37.054688 L 292.140625 -3.472656 L 320.558594 166.667969 L 77.917969 207.199219 Z M 49.5 37.054688 " clip-rule="nonzero"/></clipPath><clipPath id="bee53a3f1f"><path d="M 292.183594 -3.480469 L 49.546875 37.046875 L 77.964844 207.191406 L 320.605469 166.660156 Z M 292.183594 -3.480469 " clip-rule="nonzero"/></clipPath><clipPath id="89a2b174b8"><path d="M 225 63 L 246 63 L 246 71 L 225 71 Z M 225 63 " clip-rule="nonzero"/></clipPath><clipPath id="546b689366"><path d="M 49.5 37.054688 L 292.140625 -3.472656 L 320.558594 166.667969 L 77.917969 207.199219 Z M 49.5 37.054688 " clip-rule="nonzero"/></clipPath><clipPath id="a0a3b38ff3"><path d="M 292.183594 -3.480469 L 49.546875 37.046875 L 77.964844 207.191406 L 320.605469 166.660156 Z M 292.183594 -3.480469 " clip-rule="nonzero"/></clipPath><clipPath id="906849016c"><path d="M 103 128 L 273 128 L 273 168 L 103 168 Z M 103 128 " clip-rule="nonzero"/></clipPath><clipPath id="101fb27aed"><path d="M 49.5 37.054688 L 292.140625 -3.472656 L 320.558594 166.667969 L 77.917969 207.199219 Z M 49.5 37.054688 " clip-rule="nonzero"/></clipPath><clipPath id="976178d13e"><path d="M 292.183594 -3.480469 L 49.546875 37.046875 L 77.964844 207.191406 L 320.605469 166.660156 Z M 292.183594 -3.480469 " clip-rule="nonzero"/></clipPath></defs><rect x="-37.5" width="450" fill="#ffffff" y="-37.499999" height="449.999989" fill-opacity="1"/><rect x="-37.5" width="450" fill="#ffffff" y="-37.499999" height="449.999989" fill-opacity="1"/><rect x="-37.5" width="450" fill="#d3d3d3" y="-37.499999" height="449.999989" fill-opacity="1"/><path fill="#ffffff" d="M 299.03125 242.710938 C 298.726562 248.464844 297.878906 254.140625 296.492188 259.734375 C 290.617188 283.171875 269.003906 271.558594 258.082031 292.867188 C 252.304688 304.140625 246.347656 315.371094 239.65625 326.136719 C 235.851562 332.269531 231.058594 341.796875 224.230469 345.175781 C 210.054688 352.191406 207.136719 347.683594 197.054688 340.167969 C 186.976562 332.648438 186.976562 362.703125 173.933594 363.199219 C 160.886719 363.695312 157.882812 346.664062 149.597656 352.675781 C 141.3125 358.6875 114.726562 374.71875 109.207031 360.691406 C 103.6875 346.667969 112.21875 323.117188 100.679688 322.617188 C 95.070312 322.375 87.53125 323.199219 82.679688 319.757812 C 76.125 315.117188 78.582031 305.851562 80.5 299.382812 C 88.136719 273.621094 97.90625 247.78125 102.042969 221.183594 C 106.074219 195.269531 108.453125 168.277344 122.539062 145.417969 C 137.242188 121.550781 163.640625 109.289062 192.09375 106.558594 C 194.609375 106.316406 197.121094 106.199219 199.636719 106.199219 C 236.839844 106.199219 266.226562 127.664062 280.707031 160.425781 C 287.507812 175.785156 299.964844 225.652344 299.03125 242.710938 Z M 299.03125 242.710938 " fill-opacity="1" fill-rule="nonzero"/><g clip-path="url(#18abdc5838)"><path fill="#1e1e1e" d="M 118.332031 367.648438 C 116.980469 367.664062 115.65625 367.488281 114.355469 367.125 C 111.304688 366.238281 109.148438 364.242188 107.949219 361.191406 C 105.566406 355.140625 105.691406 347.460938 105.800781 340.6875 C 105.96875 330.472656 105.800781 324.199219 100.621094 323.972656 C 99.515625 323.925781 98.335938 323.917969 97.085938 323.914062 C 91.949219 323.890625 86.125 323.863281 81.898438 320.863281 C 74.316406 315.492188 77.496094 304.761719 79.203125 299 C 81.222656 292.179688 83.433594 285.238281 85.566406 278.53125 C 91.519531 259.804688 97.675781 240.449219 100.703125 220.980469 C 101.222656 217.660156 101.71875 214.265625 102.203125 210.984375 C 105.523438 188.316406 108.960938 164.878906 121.386719 144.710938 C 128.558594 133.074219 138.695312 123.707031 151.523438 116.871094 C 163.339844 110.578125 176.945312 106.65625 191.964844 105.21875 C 194.5 104.96875 197.085938 104.847656 199.644531 104.847656 C 208.75 104.816406 217.660156 106.125 226.371094 108.773438 C 234.636719 111.308594 242.335938 115.023438 249.46875 119.90625 C 263.378906 129.4375 274.605469 143.257812 281.953125 159.875 C 285.296875 167.441406 290.171875 183.820312 294.085938 200.617188 C 298.515625 219.625 300.808594 234.988281 300.378906 242.769531 C 300.070312 248.613281 299.210938 254.371094 297.800781 260.050781 C 294.539062 273.0625 286.378906 275.964844 278.484375 278.769531 C 271.472656 281.257812 264.222656 283.835938 259.285156 293.46875 C 253.773438 304.226562 247.71875 315.710938 240.808594 326.835938 C 240.226562 327.769531 239.625 328.78125 238.988281 329.851562 C 235.410156 335.859375 230.964844 343.335938 224.828125 346.371094 C 211.472656 352.984375 207.167969 349.65625 199.347656 343.605469 C 198.371094 342.847656 197.359375 342.058594 196.253906 341.234375 C 194.683594 340.066406 193.847656 340.289062 193.570312 340.359375 C 191.464844 340.917969 189.585938 345.234375 187.769531 349.40625 C 184.738281 356.371094 181.300781 364.273438 173.992188 364.546875 C 173.785156 364.546875 173.578125 364.5625 173.375 364.5625 C 166.703125 364.5625 162.527344 360.351562 159.15625 356.949219 C 155.441406 353.207031 153.515625 351.507812 150.402344 353.769531 C 145.21875 357.472656 139.742188 360.671875 133.964844 363.363281 C 127.742188 366.214844 122.507812 367.648438 118.332031 367.648438 Z M 199.644531 107.550781 C 197.167969 107.550781 194.671875 107.667969 192.222656 107.902344 C 161.398438 110.851562 137.058594 124.425781 123.691406 146.121094 C 111.558594 165.8125 108.164062 188.972656 104.878906 211.367188 C 104.398438 214.648438 103.898438 218.058594 103.382812 221.386719 C 100.320312 241.0625 94.132812 260.523438 88.148438 279.339844 C 86.019531 286.042969 83.8125 292.972656 81.800781 299.765625 C 79.699219 306.847656 77.933594 314.734375 83.464844 318.660156 C 86.996094 321.171875 92.359375 321.191406 97.097656 321.210938 C 98.375 321.210938 99.582031 321.222656 100.738281 321.273438 C 104.425781 321.433594 106.8125 323.652344 107.832031 327.867188 C 108.664062 331.324219 108.589844 335.894531 108.507812 340.730469 C 108.402344 347.257812 108.28125 354.648438 110.46875 360.203125 C 111.359375 362.464844 112.878906 363.875 115.109375 364.53125 C 124.390625 367.234375 142.570312 356.105469 148.796875 351.59375 C 153.929688 347.867188 157.554688 351.527344 161.0625 355.0625 C 164.328125 358.351562 168.023438 362.078125 173.875 361.859375 C 179.484375 361.644531 182.558594 354.578125 185.273438 348.339844 C 187.535156 343.144531 189.492188 338.652344 192.863281 337.761719 C 194.441406 337.339844 196.125 337.785156 197.859375 339.082031 C 198.992188 339.925781 200.015625 340.714844 201.003906 341.480469 C 208.628906 347.378906 211.785156 349.820312 223.628906 343.960938 C 229.042969 341.28125 233.269531 334.1875 236.660156 328.484375 C 237.304688 327.402344 237.914062 326.378906 238.507812 325.425781 C 245.367188 314.378906 251.390625 302.953125 256.878906 292.25 C 262.308594 281.660156 270.414062 278.777344 277.582031 276.234375 C 285.460938 273.433594 292.277344 271.019531 295.179688 259.40625 C 296.546875 253.894531 297.378906 248.304688 297.679688 242.636719 C 298.589844 226.0625 286.320312 176.453125 279.480469 160.976562 C 264.695312 127.519531 234.859375 107.550781 199.644531 107.550781 Z M 199.644531 107.550781 " fill-opacity="1" fill-rule="nonzero"/></g><path fill="#1e1e1e" d="M 180.203125 205.519531 C 180.203125 206.101562 180.144531 206.679688 180.03125 207.253906 C 179.917969 207.824219 179.75 208.382812 179.523438 208.921875 C 179.300781 209.460938 179.027344 209.972656 178.703125 210.457031 C 178.378906 210.945312 178.007812 211.394531 177.59375 211.804688 C 177.179688 212.21875 176.730469 212.585938 176.246094 212.910156 C 175.757812 213.234375 175.246094 213.511719 174.707031 213.734375 C 174.164062 213.957031 173.609375 214.125 173.035156 214.238281 C 172.460938 214.351562 171.882812 214.410156 171.296875 214.410156 C 170.714844 214.410156 170.132812 214.351562 169.5625 214.238281 C 168.988281 214.125 168.429688 213.957031 167.890625 213.734375 C 167.351562 213.511719 166.835938 213.234375 166.351562 212.910156 C 165.863281 212.585938 165.414062 212.21875 165 211.804688 C 164.589844 211.394531 164.21875 210.945312 163.894531 210.457031 C 163.570312 209.972656 163.292969 209.460938 163.070312 208.921875 C 162.847656 208.382812 162.679688 207.824219 162.5625 207.253906 C 162.449219 206.679688 162.394531 206.101562 162.394531 205.519531 C 162.394531 204.933594 162.449219 204.355469 162.5625 203.785156 C 162.679688 203.210938 162.847656 202.65625 163.070312 202.117188 C 163.292969 201.578125 163.570312 201.0625 163.894531 200.578125 C 164.21875 200.09375 164.589844 199.644531 165 199.230469 C 165.414062 198.820312 165.863281 198.449219 166.351562 198.125 C 166.835938 197.800781 167.351562 197.527344 167.890625 197.304688 C 168.429688 197.082031 168.988281 196.910156 169.5625 196.796875 C 170.132812 196.683594 170.714844 196.628906 171.296875 196.628906 C 171.882812 196.628906 172.460938 196.683594 173.035156 196.796875 C 173.609375 196.910156 174.164062 197.082031 174.707031 197.304688 C 175.246094 197.527344 175.757812 197.800781 176.246094 198.125 C 176.730469 198.449219 177.179688 198.820312 177.59375 199.230469 C 178.007812 199.644531 178.378906 200.09375 178.703125 200.578125 C 179.027344 201.0625 179.300781 201.578125 179.523438 202.117188 C 179.75 202.65625 179.917969 203.210938 180.03125 203.785156 C 180.144531 204.355469 180.203125 204.933594 180.203125 205.519531 Z M 180.203125 205.519531 " fill-opacity="1" fill-rule="nonzero"/><path fill="#1e1e1e" d="M 253.832031 200.363281 C 253.832031 200.945312 253.777344 201.523438 253.660156 202.097656 C 253.546875 202.667969 253.378906 203.226562 253.15625 203.765625 C 252.929688 204.304688 252.65625 204.816406 252.332031 205.300781 C 252.007812 205.785156 251.636719 206.234375 251.222656 206.648438 C 250.8125 207.0625 250.359375 207.429688 249.875 207.753906 C 249.390625 208.078125 248.875 208.351562 248.335938 208.574219 C 247.796875 208.800781 247.238281 208.96875 246.664062 209.082031 C 246.089844 209.195312 245.511719 209.253906 244.925781 209.253906 C 244.34375 209.253906 243.765625 209.195312 243.191406 209.082031 C 242.617188 208.96875 242.058594 208.800781 241.519531 208.574219 C 240.980469 208.351562 240.464844 208.078125 239.980469 207.753906 C 239.496094 207.429688 239.042969 207.0625 238.632812 206.648438 C 238.21875 206.234375 237.847656 205.785156 237.523438 205.300781 C 237.199219 204.816406 236.925781 204.304688 236.699219 203.765625 C 236.476562 203.226562 236.308594 202.667969 236.195312 202.097656 C 236.078125 201.523438 236.023438 200.945312 236.023438 200.363281 C 236.023438 199.777344 236.078125 199.199219 236.195312 198.625 C 236.308594 198.054688 236.476562 197.496094 236.699219 196.957031 C 236.925781 196.417969 237.199219 195.90625 237.523438 195.421875 C 237.847656 194.9375 238.21875 194.488281 238.632812 194.074219 C 239.042969 193.660156 239.496094 193.292969 239.980469 192.96875 C 240.464844 192.644531 240.980469 192.371094 241.519531 192.148438 C 242.058594 191.921875 242.617188 191.753906 243.191406 191.640625 C 243.765625 191.527344 244.34375 191.46875 244.925781 191.46875 C 245.511719 191.46875 246.089844 191.527344 246.664062 191.640625 C 247.238281 191.753906 247.796875 191.921875 248.335938 192.148438 C 248.875 192.371094 249.390625 192.644531 249.875 192.96875 C 250.359375 193.292969 250.8125 193.660156 251.222656 194.074219 C 251.636719 194.488281 252.007812 194.9375 252.332031 195.421875 C 252.65625 195.90625 252.929688 196.417969 253.15625 196.957031 C 253.378906 197.496094 253.546875 198.054688 253.660156 198.625 C 253.777344 199.199219 253.832031 199.777344 253.832031 200.363281 Z M 253.832031 200.363281 " fill-opacity="1" fill-rule="nonzero"/><path fill="#1e1e1e" d="M 211.941406 225.046875 C 211.203125 225.09375 210.464844 225.070312 209.730469 224.980469 C 208.996094 224.890625 208.277344 224.734375 207.570312 224.511719 C 206.867188 224.285156 206.1875 224 205.535156 223.648438 C 204.882812 223.300781 204.269531 222.894531 203.691406 222.429688 C 203.117188 221.964844 202.585938 221.453125 202.105469 220.890625 C 201.625 220.332031 201.199219 219.730469 200.828125 219.089844 C 200.460938 218.449219 200.152344 217.777344 199.90625 217.082031 C 199.664062 216.382812 199.484375 215.671875 199.371094 214.9375 C 199.34375 214.714844 199.359375 214.496094 199.417969 214.277344 C 199.476562 214.0625 199.574219 213.863281 199.707031 213.683594 C 199.84375 213.503906 200.007812 213.359375 200.203125 213.242188 C 200.394531 213.128906 200.601562 213.054688 200.824219 213.019531 C 201.046875 212.984375 201.269531 212.996094 201.488281 213.046875 C 201.707031 213.101562 201.90625 213.191406 202.089844 213.320312 C 202.273438 213.453125 202.425781 213.613281 202.546875 213.804688 C 202.664062 213.992188 202.746094 214.199219 202.785156 214.421875 C 202.867188 214.941406 202.992188 215.445312 203.167969 215.941406 C 203.339844 216.4375 203.558594 216.914062 203.824219 217.371094 C 204.085938 217.824219 204.386719 218.253906 204.730469 218.652344 C 205.074219 219.050781 205.449219 219.414062 205.859375 219.746094 C 206.269531 220.074219 206.707031 220.363281 207.167969 220.613281 C 207.632812 220.859375 208.117188 221.066406 208.617188 221.222656 C 209.121094 221.382812 209.632812 221.496094 210.152344 221.558594 C 210.675781 221.625 211.199219 221.640625 211.726562 221.605469 C 211.96875 221.589844 212.210938 221.566406 212.453125 221.527344 C 213.003906 221.445312 213.542969 221.308594 214.066406 221.117188 C 214.589844 220.925781 215.089844 220.6875 215.566406 220.402344 C 216.042969 220.113281 216.488281 219.78125 216.902344 219.40625 C 217.3125 219.03125 217.683594 218.617188 218.011719 218.171875 C 218.34375 217.722656 218.628906 217.246094 218.863281 216.742188 C 219.101562 216.238281 219.285156 215.714844 219.417969 215.175781 C 219.554688 214.636719 219.632812 214.089844 219.660156 213.53125 C 219.683594 212.976562 219.65625 212.421875 219.574219 211.875 C 219.546875 211.652344 219.5625 211.429688 219.621094 211.214844 C 219.679688 210.996094 219.773438 210.800781 219.910156 210.621094 C 220.046875 210.441406 220.210938 210.296875 220.40625 210.183594 C 220.597656 210.066406 220.804688 209.992188 221.027344 209.960938 C 221.25 209.925781 221.46875 209.933594 221.6875 209.988281 C 221.90625 210.039062 222.105469 210.128906 222.289062 210.261719 C 222.472656 210.390625 222.625 210.550781 222.746094 210.742188 C 222.863281 210.929688 222.945312 211.136719 222.984375 211.355469 C 223.101562 212.128906 223.140625 212.90625 223.105469 213.6875 C 223.070312 214.472656 222.957031 215.242188 222.769531 216 C 222.582031 216.761719 222.320312 217.496094 221.988281 218.203125 C 221.65625 218.914062 221.253906 219.582031 220.789062 220.210938 C 220.324219 220.84375 219.804688 221.421875 219.226562 221.949219 C 218.648438 222.476562 218.023438 222.945312 217.351562 223.347656 C 216.679688 223.753906 215.976562 224.089844 215.238281 224.359375 C 214.503906 224.625 213.746094 224.816406 212.972656 224.9375 C 212.621094 224.988281 212.28125 225.023438 211.941406 225.046875 Z M 211.941406 225.046875 " fill-opacity="1" fill-rule="nonzero"/><path fill="#1e1e1e" d="M 152.855469 272.144531 C 152.699219 272.148438 152.550781 272.125 152.40625 272.070312 C 152.261719 272.015625 152.136719 271.9375 152.023438 271.832031 C 151.910156 271.726562 151.824219 271.605469 151.757812 271.464844 C 151.695312 271.324219 151.660156 271.179688 151.65625 271.023438 C 151.652344 270.871094 151.675781 270.722656 151.730469 270.578125 C 151.785156 270.433594 151.863281 270.304688 151.96875 270.195312 C 152.074219 270.082031 152.199219 269.996094 152.335938 269.929688 C 152.476562 269.867188 152.625 269.832031 152.777344 269.828125 C 158.445312 269.441406 163.980469 268.363281 169.375 266.59375 C 174.773438 264.824219 179.867188 262.417969 184.664062 259.375 C 189.464844 256.320312 191.917969 253.25 192.15625 249.992188 C 192.605469 243.847656 186.25 242.257812 178.535156 240.9375 C 177.429688 240.746094 176.382812 240.570312 175.457031 240.371094 L 174.820312 240.234375 C 166.238281 238.394531 157.371094 236.488281 149.332031 232.476562 C 149.1875 232.410156 149.0625 232.320312 148.957031 232.203125 C 148.851562 232.085938 148.773438 231.957031 148.722656 231.808594 C 148.671875 231.660156 148.648438 231.507812 148.660156 231.351562 C 148.667969 231.195312 148.707031 231.046875 148.777344 230.90625 C 148.847656 230.765625 148.945312 230.644531 149.0625 230.542969 C 149.183594 230.441406 149.316406 230.367188 149.464844 230.320312 C 149.617188 230.273438 149.769531 230.253906 149.925781 230.269531 C 150.082031 230.285156 150.230469 230.328125 150.367188 230.402344 C 158.144531 234.285156 166.867188 236.15625 175.3125 237.96875 L 175.949219 238.105469 C 176.828125 238.300781 177.851562 238.46875 178.933594 238.65625 C 185.375 239.753906 195.113281 241.417969 194.476562 250.160156 C 194.179688 254.199219 191.382812 257.851562 185.914062 261.328125 C 180.957031 264.476562 175.6875 266.96875 170.105469 268.796875 C 164.523438 270.628906 158.800781 271.742188 152.9375 272.140625 Z M 152.855469 272.144531 " fill-opacity="1" fill-rule="nonzero"/><path fill="#ffa500" d="M 289.179688 238.824219 C 287.707031 243.601562 287.550781 248.519531 285.546875 253.191406 C 282.152344 261.109375 276.1875 268.109375 267.28125 269.464844 C 264.738281 269.847656 260.1875 269.28125 258.546875 271.808594 C 257.730469 273.0625 259.511719 273.5 260.53125 273.757812 C 266.855469 275.398438 274.535156 273.917969 279.652344 269.949219 C 280.785156 269.066406 281.828125 268.09375 282.78125 267.023438 C 286.121094 263.285156 288.351562 258.71875 290.304688 254.15625 C 292.214844 249.671875 293.265625 244.617188 292.082031 239.796875 C 291.917969 239.144531 291.695312 238.464844 291.191406 238.015625 C 290.164062 237.113281 289.480469 237.847656 289.179688 238.824219 Z M 289.179688 238.824219 " fill-opacity="1" fill-rule="nonzero"/><path fill="#ffa500" d="M 88.945312 287.019531 C 86.894531 291.175781 86.0625 295.859375 85.1875 300.375 C 84.480469 304.058594 83.640625 308.746094 86.125 311.976562 C 90.640625 317.863281 108.074219 316.863281 107.574219 310.347656 C 107.074219 303.835938 97.035156 309.722656 94.027344 306.964844 C 90.726562 303.945312 90.675781 297.289062 91.304688 293.203125 C 91.59375 291.3125 92.742188 287.820312 91.109375 286.25 C 90.945312 286.078125 90.742188 285.96875 90.511719 285.914062 C 90.277344 285.863281 90.050781 285.878906 89.828125 285.960938 C 89.488281 286.113281 89.195312 286.511719 88.945312 287.019531 Z M 88.945312 287.019531 " fill-opacity="1" fill-rule="nonzero"/><g clip-path="url(#61295cffc6)"><g clip-path="url(#cb9134036c)"><g clip-path="url(#25c5c13d75)"><path fill="#ffffff" d="M 268.898438 116.335938 L 74.121094 148.871094 C 70.949219 149.398438 67.992188 147.476562 67.503906 144.558594 C 67.230469 142.914062 67.808594 141.21875 69.054688 139.976562 C 115.945312 93.398438 166.929688 52.851562 222.539062 21.960938 C 257.359375 2.613281 298.308594 33.015625 284.933594 68.261719 L 266.851562 104.074219 L 268.894531 116.324219 Z M 268.898438 116.335938 " fill-opacity="1" fill-rule="nonzero"/></g></g></g><g clip-path="url(#897bb52e1e)"><g clip-path="url(#18e2dc204b)"><g clip-path="url(#1ea4678c48)"><path fill="#4b4b4b" d="M 272.992188 140.84375 L 114.535156 167.308594 C 109.390625 168.167969 104.601562 165.207031 103.847656 160.699219 L 101.121094 144.359375 C 166.515625 125.160156 230.734375 106.640625 266.835938 104.078125 L 272.976562 140.832031 Z M 272.992188 140.84375 " fill-opacity="1" fill-rule="nonzero"/></g></g></g><g clip-path="url(#75c219dfe0)"><g clip-path="url(#7a16a70138)"><g clip-path="url(#df26f3e6b8)"><path fill="#4b4b4b" d="M 305.335938 162.605469 C 307.703125 165.003906 306.09375 168.902344 302.476562 169.503906 L 234.007812 180.941406 C 194.179688 185.847656 173.691406 183.667969 150.230469 161.347656 L 272.980469 140.84375 L 305.324219 162.605469 Z M 305.335938 162.605469 " fill-opacity="1" fill-rule="nonzero"/></g></g></g><g clip-path="url(#07716c8696)"><g clip-path="url(#62cdaab79e)"><g clip-path="url(#6d7084579e)"><path fill="#4b4b4b" d="M 239.914062 93.890625 C 252.324219 91.816406 260.738281 80.054688 258.667969 67.664062 C 258.480469 66.539062 257.410156 65.777344 256.285156 65.964844 C 255.160156 66.152344 254.394531 67.222656 254.582031 68.34375 C 256.273438 78.476562 249.390625 88.101562 239.242188 89.796875 C 229.09375 91.492188 219.453125 84.625 217.761719 74.496094 C 217.574219 73.371094 216.503906 72.609375 215.378906 72.796875 C 214.253906 72.984375 213.488281 74.054688 213.675781 75.179688 C 215.746094 87.570312 227.523438 95.960938 239.9375 93.886719 Z M 239.914062 93.890625 " fill-opacity="1" fill-rule="nonzero"/></g></g></g><g clip-path="url(#493af99050)"><g clip-path="url(#99157d9c44)"><g clip-path="url(#ed5f61c9a0)"><path fill="#4b4b4b" d="M 239.914062 93.890625 C 241.039062 93.703125 241.800781 92.632812 241.613281 91.511719 L 235.476562 54.757812 C 235.289062 53.632812 234.21875 52.871094 233.09375 53.058594 C 231.964844 53.246094 231.203125 54.316406 231.390625 55.441406 L 237.527344 92.191406 C 237.71875 93.316406 238.785156 94.078125 239.914062 93.890625 Z M 239.914062 93.890625 " fill-opacity="1" fill-rule="nonzero"/></g></g></g><g clip-path="url(#452035364a)"><g clip-path="url(#1b7a10869b)"><g clip-path="url(#bee53a3f1f)"><path fill="#4b4b4b" d="M 233.769531 57.125 C 239.414062 56.179688 243.234375 50.839844 242.292969 45.207031 C 241.351562 39.574219 236.003906 35.765625 230.359375 36.707031 C 224.71875 37.652344 220.898438 42.992188 221.839844 48.625 C 222.78125 54.257812 228.128906 58.066406 233.769531 57.125 Z M 231.042969 40.785156 C 234.421875 40.222656 237.640625 42.503906 238.207031 45.890625 C 238.773438 49.277344 236.480469 52.480469 233.089844 53.046875 C 229.699219 53.613281 226.492188 51.328125 225.925781 47.941406 C 225.359375 44.558594 227.652344 41.351562 231.042969 40.785156 Z M 231.042969 40.785156 " fill-opacity="1" fill-rule="nonzero"/></g></g></g><g clip-path="url(#89a2b174b8)"><g clip-path="url(#546b689366)"><g clip-path="url(#a0a3b38ff3)"><path fill="#4b4b4b" d="M 227.621094 70.753906 L 243.988281 68.019531 C 245.117188 67.832031 245.878906 66.761719 245.691406 65.640625 C 245.503906 64.515625 244.433594 63.753906 243.308594 63.941406 L 226.941406 66.675781 C 225.816406 66.863281 225.050781 67.929688 225.238281 69.054688 C 225.425781 70.179688 226.496094 70.941406 227.621094 70.753906 Z M 227.621094 70.753906 " fill-opacity="1" fill-rule="nonzero"/></g></g></g><g clip-path="url(#906849016c)"><g clip-path="url(#101fb27aed)"><g clip-path="url(#976178d13e)"><path fill="#ffa500" d="M 270.933594 128.597656 L 272.980469 140.855469 L 114.527344 167.324219 C 109.378906 168.183594 104.589844 165.222656 103.839844 160.710938 L 103.15625 156.636719 L 270.933594 128.609375 Z M 270.933594 128.597656 " fill-opacity="1" fill-rule="nonzero"/></g></g></g></svg>